:SAMPLES-PER-SECOND 30
:FULLY-SPECIFIED
:DEGREES
309
root  77.4933 36.402 1.34059 -21.598 -87.4269 45.2134
RightUpLeg  -55.0841 -14.046 7.39256
RightLeg  44.3209 -4.08986 -4.5856
RightFoot  -13.395 -0.168016 -4.3273
RightToes  2.91037e-010 0 -3.6325e-017
Spine  89.1544 -7.20855 8.21707
Spine1  3.72989 1.77924 -3.12614
HEad  -50.6528 -8.47457 2.13324
LeftShoulder1  11.6571 -32.3311 -25.9936
LeftArm  -66.6499 -63.4613 22.0427
LeftForeArm  77.3712 -31.6456 -3.20613
LeftHand  -0.244104 0.0205437 5.32207
RightShoulder  3.68242 15.3915 12.4366
RightArm  -67.6577 58.2104 -13.1863
RightForeArm  39.289 28.9622 4.14469
RightHand  -20.9522 35.4784 -54.852
LeftUpLeg  -56.5287 15.2767 -13.6139
LeftLeg  39.7296 1.6328 1.83814
LeftFoot  -9.92496 0.0319266 2.24047
LeftToes  -1.10052e-010 1.3781e-010 -2.1811e-011
310
root  77.2052 36.2435 1.34754 -17.0992 -87.1375 40.9879
RightUpLeg  -55.5616 -14.1015 7.27372
RightLeg  45.7788 -4.24133 -4.98557
RightFoot  -14.5967 -0.209255 -3.88955
RightToes  2.91037e-010 0 -3.6325e-017
Spine  89.651 -7.87446 8.52462
Spine1  3.17214 1.70171 -4.1191
HEad  -50.3699 -8.34903 2.68206
LeftShoulder1  11.3822 -32.8402 -24.7116
LeftArm  -64.0032 -62.0947 21.9056
LeftForeArm  78.4612 -34.0061 -3.68957
LeftHand  -0.244104 0.0205437 5.32207
RightShoulder  3.68238 15.8011 11.9742
RightArm  -68.042 56.9455 -13.5662
RightForeArm  40.5936 29.9754 4.30398
RightHand  -21.9394 36.3091 -56.0567
LeftUpLeg  -56.9463 14.2249 -13.0297
LeftLeg  41.298 2.19953 2.45798
LeftFoot  -11.1039 0.0619985 2.26093
LeftToes  -1.10052e-010 1.3781e-010 -2.1811e-011
311
root  76.8834 36.1389 1.35112 -20.3968 -87.1852 44.3834
RightUpLeg  -55.5639 -13.8993 6.95137
RightLeg  46.7984 -4.25583 -5.17945
RightFoot  -15.5664 -0.232102 -3.4386
RightToes  2.91037e-010 0 -3.6325e-017
Spine  89.7163 -7.95005 7.90048
Spine1  4.22249 1.37503 -5.26778
HEad  -51.1378 -7.31237 3.7585
LeftShoulder1  9.76897 -32.5756 -20.276
LeftArm  -64.2987 -60.1901 21.4805
LeftForeArm  77.9634 -35.5572 -4.05284
LeftHand  -0.244104 0.0205437 5.32207
RightShoulder  3.46264 15.8265 10.6869
RightArm  -69.7011 56.669 -13.6955
RightForeArm  42.2915 29.647 4.14614
RightHand  -23.0521 37.3152 -57.2685
LeftUpLeg  -56.9766 13.6582 -12.584
LeftLeg  42.5983 2.75347 3.10408
LeftFoot  -12.3212 0.0919917 2.11234
LeftToes  -1.10052e-010 1.3781e-010 -2.1811e-011
312
root  76.5242 36.107 1.40517 -23.5826 -87.3577 47.6116
RightUpLeg  -55.234 -13.8861 6.68971
RightLeg  47.3935 -4.1575 -5.1733
RightFoot  -16.2154 -0.232137 -2.87762
RightToes  2.91037e-010 0 -3.6325e-017
Spine  89.7002 -7.89103 7.22877
Spine1  5.06441 1.13937 -6.34199
HEad  -51.8375 -6.46822 4.69473
LeftShoulder1  8.41301 -31.8924 -16.7647
LeftArm  -65.5757 -59.0753 21.1507
LeftForeArm  76.7466 -36.6829 -4.34809
LeftHand  -0.244104 0.0205437 5.32207
RightShoulder  3.56987 15.8302 11.2981
RightArm  -69.7591 56.7129 -15.1845
RightForeArm  42.1374 29.1431 4.0426
RightHand  -23.9651 38.0907 -58.2759
LeftUpLeg  -56.6098 13.1836 -12.0967
LeftLeg  43.4278 3.28065 3.72108
LeftFoot  -13.4258 0.111234 1.69851
LeftToes  -1.10052e-010 1.3781e-010 -2.1811e-011
313
root  76.1229 36.1178 1.52177 -18.2848 -87.4178 42.7851
RightUpLeg  -55.1205 -14.2512 6.83078
RightLeg  47.5998 -4.03637 -5.07018
RightFoot  -16.8384 -0.229722 -2.41165
RightToes  2.91037e-010 0 -3.6325e-017
Spine  89.1867 -8.1187 7.08748
Spine1  5.80483 0.937167 -7.18875
HEad  -52.6558 -5.87645 5.19442
LeftShoulder1  7.03496 -30.8607 -13.2243
LeftArm  -68.8621 -58.9936 21.4828
LeftForeArm  76.3733 -37.4652 -4.54498
LeftHand  -0.244104 0.0205437 5.32207
RightShoulder  3.73607 15.8204 12.2608
RightArm  -69.8193 56.8016 -17.4811
RightForeArm  39.7894 29.1126 4.1537
RightHand  -23.9328 38.0249 -58.2832
LeftUpLeg  -56.4056 12.1206 -11.3259
LeftLeg  43.8766 3.94678 4.45706
LeftFoot  -14.3384 0.113253 1.03773
LeftToes  -1.10052e-010 1.3781e-010 -2.1811e-011
314
root  75.6757 36.129 1.65994 -7.19525 -87.1635 32.7905
RightUpLeg  -55.4717 -14.7589 7.21428
RightLeg  47.538 -3.93938 -4.94802
RightFoot  -17.6004 -0.235562 -2.13122
RightToes  2.91037e-010 0 -3.6325e-017
Spine  88.0221 -8.52296 7.43446
Spine1  6.30728 0.72421 -7.62499
HEad  -53.3925 -5.50014 5.27029
LeftShoulder1  5.7486 -29.9384 -9.65994
LeftArm  -72.7474 -59.3606 22.5975
LeftForeArm  76.5377 -37.7413 -4.60635
LeftHand  -0.244104 0.0205437 5.32207
RightShoulder  3.71697 15.7551 12.2235
RightArm  -70.971 57.0395 -19.3014
RightForeArm  36.7654 28.9077 4.26306
RightHand  -23.2564 37.4049 -57.5984
LeftUpLeg  -56.7061 10.49 -10.4883
LeftLeg  44.1347 4.68908 5.25802
LeftFoot  -15.0439 0.111485 0.646595
LeftToes  -1.10052e-010 1.3781e-010 -2.1811e-011
315
root  75.199 36.1221 1.81056 2.24969 -86.5854 24.6942
RightUpLeg  -56.0708 -15.3721 7.56709
RightLeg  47.5456 -3.82039 -4.81185
RightFoot  -18.2844 -0.226654 -1.69833
RightToes  2.91037e-010 0 -3.6325e-017
Spine  86.4656 -8.96739 8.0304
Spine1  6.27212 0.531037 -7.77403
HEad  -53.7239 -5.41812 5.14439
LeftShoulder1  5.04482 -29.5982 -7.51231
LeftArm  -75.5796 -59.9071 24.949
LeftForeArm  75.7968 -36.9721 -4.44527
LeftHand  -0.244104 0.0205437 5.32207
RightShoulder  3.52171 15.695 11.1653
RightArm  -72.3983 57.3412 -19.6229
RightForeArm  34.7206 27.9213 4.15224
RightHand  -22.6436 36.847 -56.9524
LeftUpLeg  -57.2393 8.66051 -9.73933
LeftLeg  44.3826 5.32755 5.96134
LeftFoot  -15.6181 0.118403 0.65751
LeftToes  -1.10052e-010 1.3781e-010 -2.1811e-011
316
root  74.7071 36.094 1.99338 9.99976 -85.924 18.1132
RightUpLeg  -56.5815 -16.1509 7.939
RightLeg  47.8278 -3.69572 -4.71356
RightFoot  -18.9572 -0.195869 -1.01737
RightToes  2.91037e-010 0 -3.6325e-017
Spine  84.8326 -9.38652 8.85595
Spine1  5.59076 0.463586 -7.77011
HEad  -53.5828 -5.69579 4.9896
LeftShoulder1  5.06428 -29.766 -7.48362
LeftArm  -77.3482 -61.0029 28.4641
LeftForeArm  73.9579 -34.8395 -4.00614
LeftHand  -0.244104 0.0205437 5.32207
RightShoulder  3.22937 15.6811 9.48704
RightArm  -72.7894 57.2511 -17.8921
RightForeArm  34.0948 26.5503 3.88883
RightHand  -21.9491 36.2786 -56.114
LeftUpLeg  -57.6685 6.8687 -8.87006
LeftLeg  44.8361 5.85586 6.60522
LeftFoot  -16.2868 0.112572 0.353231
LeftToes  -1.10052e-010 1.3781e-010 -2.1811e-011
317
root  74.1748 36.0403 2.1687 16.6332 -85.5563 12.3649
RightUpLeg  -56.7278 -16.5924 8.23018
RightLeg  48.1955 -3.61527 -4.67969
RightFoot  -20.0126 -0.162093 -0.362892
RightToes  2.91037e-010 0 -3.6325e-017
Spine  83.2462 -9.31661 9.58258
Spine1  4.78852 0.638438 -7.46711
HEad  -53.2283 -6.12149 4.87316
LeftShoulder1  5.32587 -29.9214 -8.27002
LeftArm  -78.8591 -62.6216 32.2815
LeftForeArm  72.1648 -31.7838 -3.38491
LeftHand  -0.244104 0.0205437 5.32207
RightShoulder  3.00604 15.7179 8.154
RightArm  -72.4349 56.9194 -16.113
RightForeArm  33.8798 24.9574 3.56737
RightHand  -20.6379 35.1985 -54.4567
LeftUpLeg  -57.9435 5.60778 -7.95044
LeftLeg  45.6234 6.28732 7.24376
LeftFoot  -17.2755 0.074535 -0.552753
LeftToes  -1.10052e-010 1.3781e-010 -2.1811e-011
318
root  73.5841 35.9637 2.28504 21.8122 -85.7368 7.6792
RightUpLeg  -56.5237 -16.2795 8.06807
RightLeg  48.9413 -3.40145 -4.53954
RightFoot  -20.7752 -0.0807527 0.706216
RightToes  2.91037e-010 0 -3.6325e-017
Spine  81.7882 -8.45389 9.62049
Spine1  4.6169 1.05715 -6.8906
HEad  -52.8321 -6.33924 4.76167
LeftShoulder1  5.37781 -29.8747 -8.47108
LeftArm  -79.588 -64.0408 35.9047
LeftForeArm  70.635 -28.4088 -2.72143
LeftHand  -0.244104 0.0205437 5.32207
RightShoulder  3.03181 15.8621 8.17027
RightArm  -72.0779 57.237 -17.0997
RightForeArm  32.5042 22.3911 2.9758
RightHand  -18.8558 33.5985 -52.1852
LeftUpLeg  -57.894 5.38602 -7.34125
LeftLeg  46.6922 6.46008 7.70033
LeftFoot  -18.6053 0.0261195 -1.35387
LeftToes  -1.10052e-010 1.3781e-010 -2.1811e-011
319
root  72.9936 35.885 2.3993 31.2669 -86.1606 -2.1217
RightUpLeg  -56.6241 -15.8012 7.7673
RightLeg  51.5793 -2.88671 -4.28247
RightFoot  -18.9454 0.0583744 3.01127
RightToes  2.91037e-010 0 -3.6325e-017
Spine  80.4043 -7.28679 9.21453
Spine1  6.01014 1.68977 -6.17312
HEad  -52.9202 -6.19574 4.40679
LeftShoulder1  5.03326 -29.3636 -7.56734
LeftArm  -79.947 -64.8733 40.3994
LeftForeArm  68.4895 -24.6515 -2.04773
LeftHand  -0.244104 0.0205437 5.32207
RightShoulder  2.96945 16.0241 7.65698
RightArm  -71.53 57.9741 -19.7334
RightForeArm  29.0239 18.6757 1.74637
RightHand  -17.1658 31.8775 -50.0528
LeftUpLeg  -57.0954 5.97444 -6.65375
LeftLeg  48.0461 6.27991 7.85398
LeftFoot  -20.179 -0.0171444 -1.78809
LeftToes  -1.10052e-010 1.3781e-010 -2.1811e-011
320
root  72.4778 35.8095 2.60562 50.9497 -85.947 -23.3692
RightUpLeg  -57.9133 -16.0131 8.31173
RightLeg  57.2702 -2.40476 -4.51769
RightFoot  -12.7232 -0.0220246 5.27274
RightToes  2.91037e-010 0 -3.6325e-017
Spine  79.2972 -6.66841 9.43614
Spine1  8.56957 2.55502 -5.51155
HEad  -53.6995 -5.86844 3.70581
LeftShoulder1  4.43907 -28.4493 -5.98681
LeftArm  -81.6299 -65.489 45.8333
LeftForeArm  66.7758 -20.161 -1.95555
LeftHand  -0.244104 0.0205437 5.32207
RightShoulder  2.49326 16.1397 4.83041
RightArm  -70.634 58.1507 -20.8718
RightForeArm  25.1507 14.3462 0.459735
RightHand  -15.7811 30.2391 -48.396
LeftUpLeg  -55.3343 6.67177 -5.0049
LeftLeg  49.8642 5.94802 7.95073
LeftFoot  -21.9655 -0.1005 -2.4862
LeftToes  -1.10052e-010 1.3781e-010 -2.1811e-011
321
root  72.0146 35.6555 2.85742 66.9182 -84.8906 -41.3773
RightUpLeg  -61.103 -16.9177 9.84909
RightLeg  64.7036 -2.25232 -5.87375
RightFoot  -4.00351 -0.257741 4.08906
RightToes  2.91037e-010 0 -3.6325e-017
Spine  79.7842 -7.49966 10.8143
Spine1  5.81429 3.35388 -6.59031
HEad  -51.1752 -6.11174 3.39307
LeftShoulder1  5.68589 -30.6637 -9.05638
LeftArm  -75.2838 -66.9898 45.4969
LeftForeArm  67.4843 -15.2967 -3.56902
LeftHand  -0.244104 0.0205437 5.32207
RightShoulder  2.76084 17.3687 5.44474
RightArm  -63.9571 58.3411 -18.1295
RightForeArm  23.5473 9.64629 0.102142
RightHand  -14.596 28.6749 -47.0256
LeftUpLeg  -53.4125 7.00668 -3.01471
LeftLeg  52.212 5.73325 8.3463
LeftFoot  -23.9089 -0.227868 -3.37593
LeftToes  -1.10052e-010 1.3781e-010 -2.1811e-011
322
root  71.4945 35.3563 3.03088 66.6313 -84.6695 -41.9707
RightUpLeg  -66.4305 -18.1171 11.4422
RightLeg  70.868 -2.22579 -8.05171
RightFoot  1.28127 0.0776988 -0.804575
RightToes  2.91037e-010 0 -3.6325e-017
Spine  78.2439 -8.01979 11.3952
Spine1  6.13519 3.32868 -7.12915
HEad  -50.9475 -5.64046 3.56674
LeftShoulder1  5.1284 -30.6552 -7.23602
LeftArm  -76.8186 -67.8837 45.6486
LeftForeArm  70.6328 -10.6346 -4.64283
LeftHand  -0.244104 0.0205437 5.32207
RightShoulder  2.47514 17.8392 3.59384
RightArm  -61.6816 58.3141 -16.0739
RightForeArm  23.8028 5.93572 -0.301042
RightHand  -13.433 27.2222 -45.4288
LeftUpLeg  -52.5905 6.81906 -2.80253
LeftLeg  54.5363 5.74522 9.0895
LeftFoot  -25.7359 -0.292796 -3.55242
LeftToes  -1.10052e-010 1.3781e-010 -2.1811e-011
323
root  70.8245 35.1318 3.13195 63.5978 -85.6033 -39.2296
RightUpLeg  -71.1068 -19.105 13.2247
RightLeg  72.334 -2.70034 -10.3779
RightFoot  -0.142011 0.443075 -4.57697
RightToes  2.91037e-010 0 -3.6325e-017
Spine  76.8219 -8.22973 11.4165
Spine1  6.76683 2.94675 -7.50295
HEad  -50.7737 -5.45809 3.71242
LeftShoulder1  4.64765 -30.6369 -5.68378
LeftArm  -77.0074 -68.6652 45.5212
LeftForeArm  71.6228 -7.42472 -4.84523
LeftHand  -0.244104 0.0205437 5.32207
RightShoulder  2.24818 18.1302 2.23088
RightArm  -60.3042 58.5454 -15.1279
RightForeArm  24.6434 3.1199 -0.558896
RightHand  -12.4572 26.1192 -43.8093
LeftUpLeg  -51.5556 6.92388 -3.8468
LeftLeg  55.8726 5.86473 9.73157
LeftFoot  -27.2496 -0.296538 -3.29084
LeftToes  -1.10052e-010 1.3781e-010 -2.1811e-011
